<?xml version="1.0" encoding="UTF-8"?>
<!-- Created with Inkscape (http://www.inkscape.org/) -->
<svg width="19.442" height="19.084" version="1.1" viewBox="0 0 5.1439 5.0493" xmlns="http://www.w3.org/2000/svg">
 <g transform="translate(.39601 .6093)">
  <g fill="#8eef97" stroke-width=".34034">
   <path d="m-4.4979 4.5274v1.0289l-0.50953-0.31729-0.39171 0.54674 1.0583 0.65681c0.1185 0.073518 0.27321 0.073518 0.39171 0l1.0583-0.65681-0.39171-0.54674-0.50953 0.31729v-1.0289zm-0.52917 2.0975c-0.29316 0-0.52917 0.21962-0.52917 0.49248v0.49248h-0.70538v1.186h4.2333v-1.186h-0.70538v-0.49248c0-0.27285-0.23601-0.49248-0.52917-0.49248zm1.2232 0.057361a0.06 0.06 0 0 1 0.059945 0.030489 0.06 0.06 0 0 1-0.021704 0.082166l-0.084233 0.048059c0.55721 0.012537 0.93999 0.37354 0.93999 0.89555 0 0.43864-0.33518 0.7982-0.77153 0.90796-0.080355 0.019913-0.16191-0.029218-0.1819-0.10955-0.019912-0.080355 0.029218-0.16139 0.10955-0.18138 0.32326-0.081314 0.54467-0.3319 0.54467-0.61702 0-0.34539-0.32129-0.71107-0.75344-0.71107-0.00687 1.79e-5 -0.013423 4.83e-5 -0.020154 0l0.14676 0.15606a0.06 0.06 0 0 1-0.00362 0.085783 0.06 0.06 0 0 1-0.084233-0.00362l-0.26561-0.28112a0.06 0.06 0 0 1 0-0.00827 0.06 0.06 0 0 1-0.00775-0.00155 0.06 0.06 0 0 1 0.00982-0.039274 0.06 0.06 0 0 1 0.00207-0.03514 0.06 0.06 0 0 1 0.00775 0 0.06 0.06 0 0 1 0.00207-0.00775l0.34933-0.20309a0.06 0.06 0 0 1 0.022221-0.00723zm-0.74414 0.14159c0.069665-0.00287 0.13392 0.043394 0.15141 0.11369 0.019913 0.080355-0.028701 0.16139-0.10904 0.18138-0.32449 0.080659-0.54674 0.3338-0.54674 0.6196 0 0.34318 0.32333 0.70592 0.75138 0.71055l-0.1049-0.10542a0.06426 0.06426 0 0 1 0.00155-0.091468 0.06426 0.06426 0 0 1 0.089917 0.00156l0.23254 0.23254a0.06426 0.06426 0 0 1 0.00568 0.00982 0.06426 0.06426 0 0 1 0.00413 0.00413 0.06426 0.06426 0 0 1 0.00207 0.00775 0.06426 0.06426 0 0 1 0.00362 0.015502 0.06426 0.06426 0 0 1 0 0.015502 0.06426 0.06426 0 0 1-0.00362 0.015502 0.06426 0.06426 0 0 1-0.00775 0.01602 0.06426 0.06426 0 0 1-0.00413 0.00568 0.06426 0.06426 0 0 1-0.00413 0 0.06426 0.06426 0 0 1-0.011369 0.011885l-0.33228 0.18551a0.06426 0.06426 0 0 1-0.085783-0.023771 0.06426 0.06426 0 0 1 0.023254-0.08785l0.10645-0.060462c-0.54402-0.023069-0.96583-0.35085-0.96583-0.863 0-0.43969 0.33568-0.80169 0.7736-0.91054 0.010044-0.00249 0.02002-0.00372 0.029972-0.00413z"/>
   <path d="m6.5264 3.1325c-0.29316 0-0.52917 0.21966-0.52917 0.49252v0.49252h-0.70556v0.65669h4.2333v-0.65669h-0.70556v-0.49252c0-0.27285-0.23601-0.49252-0.52917-0.49252z"/>
   <path d="m7.0556-0.55254v1.0286l-0.50987-0.3168-0.39137 0.5464 1.0583 0.65669c0.1185 0.073518 0.27287 0.073518 0.39137 0l1.0583-0.65669-0.39137-0.5464-0.50987 0.3168v-1.0286z"/>
  </g>
  <path d="m7.9375 0.52917-0.56801 0.34225a0.097482 0.10109 0 0 0-0.00316 0.013159 0.097482 0.10109 0 0 0-0.012689 0 0.097482 0.10109 0 0 0-0.00316 0.059234 0.097482 0.10109 0 0 0-0.015873 0.065818 0.097482 0.10109 0 0 0 0.012689 0.00328 0.097482 0.10109 0 0 0 0 0.013159l0.43155 0.47388a0.097482 0.10109 0 0 0 0.13645 0.00659 0.097482 0.10109 0 0 0 0.00635-0.1448l-0.3459-0.38173 0.46012-0.27314a0.097482 0.10109 0 0 0 0.034905-0.13821 0.097482 0.10109 0 0 0-0.13328-0.039491zm-0.087053 0.258c-0.13509-3.6533e-4 -0.39246 0.02971-0.39211 0.16981-3.523e-4 0.1401 0.12268 0.14231 0.25777 0.14195 0.70213 0 1.2241 0.61548 1.2241 1.1974 0 0.4804-0.36013 0.9029-0.88533 1.0399-0.13052 0.033683-0.21005 0.17066-0.1777 0.30605 0.032479 0.13536 0.16456 0.21784 0.29511 0.18429 0.70893-0.18493 1.2534-0.79117 1.2534-1.5302 0-0.89529-0.64353-1.5092-1.5753-1.5092zm-0.85223 2.3747a0.1044 0.10827 0 0 0-0.00316 0.15467l0.27923 0.28959-0.41887 0.24681a0.1044 0.10827 0 0 0-0.038078 0.14809 0.1044 0.10827 0 0 0 0.13962 0.039489l0.53945-0.31263a0.1044 0.10827 0 0 0 0.01904-0.019745 0.1044 0.10827 0 0 0 0.00635 0 0.1044 0.10827 0 0 0 0.00635-0.00986 0.1044 0.10827 0 0 0 0.012689-0.026326 0.1044 0.10827 0 0 0 0.00635-0.026326 0.1044 0.10827 0 0 0 0-0.026326 0.1044 0.10827 0 0 0-0.00635-0.026326 0.1044 0.10827 0 0 0-0.00316-0.013159 0.1044 0.10827 0 0 0-0.00635-0.00659 0.1044 0.10827 0 0 0-0.00952-0.016462l-0.37763-0.39161a0.1044 0.10827 0 0 0-0.14597-0.0032856zm-0.28242-2.399c-0.71149 0.18341-1.2566 0.79269-1.2566 1.5335 0 0.8953 0.73756 1.4571 1.6693 1.4571 0.13385-0.00144 0.29526 0.017769 0.2949-0.12105 3.558e-4 -0.13882-0.11067-0.13702-0.24452-0.13846-0.70213 0-1.2342-0.61567-1.2342-1.1976 0-0.48155 0.3613-0.90729 0.88851-1.0432 0.13052-0.033683 0.21005-0.17066 0.1777-0.30605-0.032479-0.13536-0.16456-0.21784-0.29511-0.18429z" color="#000000" fill="#f95" stroke-linecap="round" stroke-width="1.6545" style="-inkscape-stroke:none"/>
  <g fill="#8eef97">
   <path d="m4.9389 6.8558v1.0286l-0.50987-0.3168-0.39137 0.5464 1.0583 0.65669c0.1185 0.073518 0.27287 0.073518 0.39137 0l1.0583-0.65669-0.39137-0.5464-0.50987 0.3168v-1.0286zm-0.52917 2.0976c-0.29316 0-0.52917 0.21966-0.52917 0.49252v0.49252h-0.70556v1.1859h4.2333v-1.1859h-0.70556v-0.49252c0-0.27285-0.23601-0.49252-0.52917-0.49252z" stroke-width=".34034"/>
   <path d="m-3.9688-2.0505c-0.29316 0-0.52917 0.21966-0.52917 0.49252v0.49252h-0.70556v0.60708h4.2333v-0.60708h-0.70556v-0.49252c0-0.27285-0.23601-0.49252-0.52917-0.49252z"/>
   <path d="m1.8521-0.6093v1.0286l-0.50987-0.3168-0.39137 0.5464 1.0583 0.65669c0.1185 0.073518 0.27287 0.073518 0.39137 0l1.0583-0.65669-0.39137-0.5464-0.50987 0.3168v-1.0286z"/>
  </g>
  <g transform="translate(3.1089 6.8579)">
   <path d="m1.8574 3.6895a0.06426 0.06426 0 0 0-0.0019532 0.091797l0.17188 0.17188-0.25781 0.14648a0.06426 0.06426 0 0 0-0.023438 0.087891 0.06426 0.06426 0 0 0 0.085938 0.023438l0.33203-0.18555a0.06426 0.06426 0 0 0 0.011719-0.011719 0.06426 0.06426 0 0 0 0.00391 0 0.06426 0.06426 0 0 0 0.00391-0.00586 0.06426 0.06426 0 0 0 0.00781-0.015625 0.06426 0.06426 0 0 0 0.00391-0.015625 0.06426 0.06426 0 0 0 0-0.015625 0.06426 0.06426 0 0 0-0.00391-0.015625 0.06426 0.06426 0 0 0-0.00195-0.00781 0.06426 0.06426 0 0 0-0.00391-0.00391 0.06426 0.06426 0 0 0-0.00586-0.00977l-0.23243-0.23242a0.06426 0.06426 0 0 0-0.089844-0.00195zm-0.17383-1.4238c-0.43792 0.10885-0.77344 0.47047-0.77344 0.91016 0 0.53136 0.45397 0.86481 1.0275 0.86481 0.082384-8.579e-4 0.18173 0.010546 0.18151-0.071842 2.19e-4 -0.082388-0.06812-0.08132-0.1505-0.082178-0.43216 0-0.75965-0.3654-0.75965-0.71079 0-0.2858 0.22238-0.53848 0.54688-0.61914 0.080336-0.019991 0.12929-0.10129 0.10938-0.18164-0.019991-0.080336-0.10129-0.12929-0.18164-0.10938z" color="#000000" stroke-linecap="round" style="-inkscape-stroke:none"/>
  </g>
  <path d="m5.5444 8.9848-0.34961 0.20312a0.06 0.06 0 0 0-0.00195 0.00781 0.06 0.06 0 0 0-0.00781 0 0.06 0.06 0 0 0-0.00195 0.035156 0.06 0.06 0 0 0-0.00977 0.039063 0.06 0.06 0 0 0 0.00781 0.00195 0.06 0.06 0 0 0 0 0.00781l0.26562 0.28125a0.06 0.06 0 0 0 0.083984 0.00391 0.06 0.06 0 0 0 0.00391-0.085937l-0.2129-0.22656 0.2832-0.16211a0.06 0.06 0 0 0 0.021484-0.082031 0.06 0.06 0 0 0-0.082031-0.023438zm-0.053581 0.15313c-0.083148-2.168e-4 -0.24156 0.017633-0.24134 0.10078-2.168e-4 0.083148 0.075511 0.084462 0.15866 0.084245 0.43216 0 0.75345 0.36529 0.75345 0.71068 0 0.28512-0.22166 0.53587-0.54492 0.61719-0.080336 0.01999-0.12929 0.10129-0.10938 0.18164 0.019991 0.08034 0.10129 0.12929 0.18164 0.10938 0.43635-0.10976 0.77148-0.46956 0.77148-0.9082 0-0.53136-0.39609-0.8957-0.9696-0.8957z" color="#000000" stroke-linecap="round" style="-inkscape-stroke:none"/>
  <path d="m2.6139 2.7489 0.4452 1.3088 1.4388-0.25799m-3.4201-2.6842 0.39013 0.96689m-0.39013-0.96689-1.2238 0.027678m2.3094 3.0468c-0.95482 0-1.7289-0.77404-1.7289-1.7289 2e-8 -0.54364 0.25092-1.0287 0.64326-1.3456m1.0856-0.38326c0.95482 0 1.7289 0.77404 1.7289 1.7289 0 0.55491-0.4268 1.2803-0.83321 1.5966" fill="none" stroke="#d35f5f" stroke-linecap="round" stroke-width=".5"/>
 </g>
</svg>
